<mxfile host="app.diagrams.net" agent="Mozilla/5.0 (Windows NT 10.0; Win64; x64) AppleWebKit/537.36 (KHTML, like Gecko) Chrome/135.0.0.0 Safari/537.36" version="27.0.1">
  <diagram id="97nf2SlayfSzLlpT78EO" name="Page-12">
    <mxGraphModel dx="1213" dy="613" grid="1" gridSize="10" guides="1" tooltips="1" connect="1" arrows="1" fold="1" page="1" pageScale="1" pageWidth="827" pageHeight="1169" math="0" shadow="0">
      <root>
        <mxCell id="0" />
        <mxCell id="1" parent="0" />
        <mxCell id="xyrzaxNAodYZ4Z6qR1K5-1" value="SuggestedActivitiesGUI" style="swimlane;fontStyle=1;align=center;verticalAlign=top;childLayout=stackLayout;horizontal=1;startSize=30;horizontalStack=0;resizeParent=1;resizeParentMax=0;resizeLast=0;collapsible=1;marginBottom=0;whiteSpace=wrap;html=1;fillColor=#EA6B66;swimlaneFillColor=#EA6B66;" parent="1" vertex="1">
          <mxGeometry x="289" y="40" width="250" height="116" as="geometry" />
        </mxCell>
        <mxCell id="xyrzaxNAodYZ4Z6qR1K5-2" value="" style="line;strokeWidth=1;fillColor=none;align=left;verticalAlign=middle;spacingTop=-1;spacingLeft=3;spacingRight=3;rotatable=0;labelPosition=right;points=[];portConstraint=eastwest;strokeColor=inherit;" parent="xyrzaxNAodYZ4Z6qR1K5-1" vertex="1">
          <mxGeometry y="30" width="250" height="8" as="geometry" />
        </mxCell>
        <mxCell id="BUBC56-ESGWpyypjYJ3N-6" value="+ displayStartEndTimeFields(): void" style="text;strokeColor=none;fillColor=none;align=left;verticalAlign=top;spacingLeft=4;spacingRight=4;overflow=hidden;rotatable=0;points=[[0,0.5],[1,0.5]];portConstraint=eastwest;whiteSpace=wrap;html=1;" parent="xyrzaxNAodYZ4Z6qR1K5-1" vertex="1">
          <mxGeometry y="38" width="250" height="26" as="geometry" />
        </mxCell>
        <mxCell id="xyrzaxNAodYZ4Z6qR1K5-3" value="+ setStartTime(): void" style="text;strokeColor=none;fillColor=none;align=left;verticalAlign=top;spacingLeft=4;spacingRight=4;overflow=hidden;rotatable=0;points=[[0,0.5],[1,0.5]];portConstraint=eastwest;whiteSpace=wrap;html=1;" parent="xyrzaxNAodYZ4Z6qR1K5-1" vertex="1">
          <mxGeometry y="64" width="250" height="26" as="geometry" />
        </mxCell>
        <mxCell id="xyrzaxNAodYZ4Z6qR1K5-4" value="+ setEndTime(): void" style="text;strokeColor=none;fillColor=none;align=left;verticalAlign=top;spacingLeft=4;spacingRight=4;overflow=hidden;rotatable=0;points=[[0,0.5],[1,0.5]];portConstraint=eastwest;whiteSpace=wrap;html=1;" parent="xyrzaxNAodYZ4Z6qR1K5-1" vertex="1">
          <mxGeometry y="90" width="250" height="26" as="geometry" />
        </mxCell>
        <mxCell id="xyrzaxNAodYZ4Z6qR1K5-31" value="Proxy Design Pattern" style="text;html=1;align=center;verticalAlign=middle;whiteSpace=wrap;rounded=0;" parent="1" vertex="1">
          <mxGeometry x="20" y="20" width="160" height="30" as="geometry" />
        </mxCell>
        <mxCell id="BUBC56-ESGWpyypjYJ3N-1" value="" style="endArrow=block;endSize=16;endFill=0;html=1;rounded=0;exitX=0.5;exitY=0;exitDx=0;exitDy=0;entryX=0.484;entryY=1.154;entryDx=0;entryDy=0;entryPerimeter=0;" parent="1" source="BUBC56-ESGWpyypjYJ3N-7" target="xyrzaxNAodYZ4Z6qR1K5-4" edge="1">
          <mxGeometry width="160" relative="1" as="geometry">
            <mxPoint x="205" y="320" as="sourcePoint" />
            <mxPoint x="390" y="163" as="targetPoint" />
          </mxGeometry>
        </mxCell>
        <mxCell id="BUBC56-ESGWpyypjYJ3N-2" value="" style="endArrow=open;endFill=1;endSize=12;html=1;rounded=0;exitX=1;exitY=0.5;exitDx=0;exitDy=0;entryX=0;entryY=0.5;entryDx=0;entryDy=0;" parent="1" source="BUBC56-ESGWpyypjYJ3N-10" target="BUBC56-ESGWpyypjYJ3N-15" edge="1">
          <mxGeometry width="160" relative="1" as="geometry">
            <mxPoint x="330" y="371" as="sourcePoint" />
            <mxPoint x="470" y="371" as="targetPoint" />
          </mxGeometry>
        </mxCell>
        <mxCell id="BUBC56-ESGWpyypjYJ3N-4" value="+RealSubject" style="text;html=1;align=center;verticalAlign=middle;resizable=0;points=[];autosize=1;strokeColor=none;fillColor=none;" parent="1" vertex="1">
          <mxGeometry x="350" y="340" width="100" height="30" as="geometry" />
        </mxCell>
        <mxCell id="BUBC56-ESGWpyypjYJ3N-5" value="" style="endArrow=block;endSize=16;endFill=0;html=1;rounded=0;exitX=0.5;exitY=0;exitDx=0;exitDy=0;entryX=0.515;entryY=1.115;entryDx=0;entryDy=0;entryPerimeter=0;" parent="1" source="BUBC56-ESGWpyypjYJ3N-12" target="xyrzaxNAodYZ4Z6qR1K5-4" edge="1">
          <mxGeometry width="160" relative="1" as="geometry">
            <mxPoint x="595" y="320" as="sourcePoint" />
            <mxPoint x="515" y="190" as="targetPoint" />
          </mxGeometry>
        </mxCell>
        <mxCell id="BUBC56-ESGWpyypjYJ3N-7" value="ProxySuggestedActivitiesGUI" style="swimlane;fontStyle=1;align=center;verticalAlign=top;childLayout=stackLayout;horizontal=1;startSize=30;horizontalStack=0;resizeParent=1;resizeParentMax=0;resizeLast=0;collapsible=1;marginBottom=0;whiteSpace=wrap;html=1;fillColor=#EA6B66;swimlaneFillColor=#EA6B66;" parent="1" vertex="1">
          <mxGeometry x="60" y="350" width="250" height="116" as="geometry" />
        </mxCell>
        <mxCell id="BUBC56-ESGWpyypjYJ3N-8" value="" style="line;strokeWidth=1;fillColor=none;align=left;verticalAlign=middle;spacingTop=-1;spacingLeft=3;spacingRight=3;rotatable=0;labelPosition=right;points=[];portConstraint=eastwest;strokeColor=inherit;" parent="BUBC56-ESGWpyypjYJ3N-7" vertex="1">
          <mxGeometry y="30" width="250" height="8" as="geometry" />
        </mxCell>
        <mxCell id="BUBC56-ESGWpyypjYJ3N-9" value="+ displayStartEndTimeFields(): void" style="text;strokeColor=none;fillColor=none;align=left;verticalAlign=top;spacingLeft=4;spacingRight=4;overflow=hidden;rotatable=0;points=[[0,0.5],[1,0.5]];portConstraint=eastwest;whiteSpace=wrap;html=1;" parent="BUBC56-ESGWpyypjYJ3N-7" vertex="1">
          <mxGeometry y="38" width="250" height="26" as="geometry" />
        </mxCell>
        <mxCell id="BUBC56-ESGWpyypjYJ3N-10" value="+ setStartTime(): void" style="text;strokeColor=none;fillColor=none;align=left;verticalAlign=top;spacingLeft=4;spacingRight=4;overflow=hidden;rotatable=0;points=[[0,0.5],[1,0.5]];portConstraint=eastwest;whiteSpace=wrap;html=1;" parent="BUBC56-ESGWpyypjYJ3N-7" vertex="1">
          <mxGeometry y="64" width="250" height="26" as="geometry" />
        </mxCell>
        <mxCell id="BUBC56-ESGWpyypjYJ3N-11" value="+ setEndTime(): void" style="text;strokeColor=none;fillColor=none;align=left;verticalAlign=top;spacingLeft=4;spacingRight=4;overflow=hidden;rotatable=0;points=[[0,0.5],[1,0.5]];portConstraint=eastwest;whiteSpace=wrap;html=1;" parent="BUBC56-ESGWpyypjYJ3N-7" vertex="1">
          <mxGeometry y="90" width="250" height="26" as="geometry" />
        </mxCell>
        <mxCell id="BUBC56-ESGWpyypjYJ3N-12" value="RealSuggestedActivitiesGUI" style="swimlane;fontStyle=1;align=center;verticalAlign=top;childLayout=stackLayout;horizontal=1;startSize=30;horizontalStack=0;resizeParent=1;resizeParentMax=0;resizeLast=0;collapsible=1;marginBottom=0;whiteSpace=wrap;html=1;fillColor=#EA6B66;swimlaneFillColor=#EA6B66;" parent="1" vertex="1">
          <mxGeometry x="520" y="350" width="250" height="116" as="geometry" />
        </mxCell>
        <mxCell id="BUBC56-ESGWpyypjYJ3N-13" value="" style="line;strokeWidth=1;fillColor=none;align=left;verticalAlign=middle;spacingTop=-1;spacingLeft=3;spacingRight=3;rotatable=0;labelPosition=right;points=[];portConstraint=eastwest;strokeColor=inherit;" parent="BUBC56-ESGWpyypjYJ3N-12" vertex="1">
          <mxGeometry y="30" width="250" height="8" as="geometry" />
        </mxCell>
        <mxCell id="BUBC56-ESGWpyypjYJ3N-14" value="+ displayStartEndTimeFields(): void" style="text;strokeColor=none;fillColor=none;align=left;verticalAlign=top;spacingLeft=4;spacingRight=4;overflow=hidden;rotatable=0;points=[[0,0.5],[1,0.5]];portConstraint=eastwest;whiteSpace=wrap;html=1;" parent="BUBC56-ESGWpyypjYJ3N-12" vertex="1">
          <mxGeometry y="38" width="250" height="26" as="geometry" />
        </mxCell>
        <mxCell id="BUBC56-ESGWpyypjYJ3N-15" value="+ setStartTime(): void" style="text;strokeColor=none;fillColor=none;align=left;verticalAlign=top;spacingLeft=4;spacingRight=4;overflow=hidden;rotatable=0;points=[[0,0.5],[1,0.5]];portConstraint=eastwest;whiteSpace=wrap;html=1;" parent="BUBC56-ESGWpyypjYJ3N-12" vertex="1">
          <mxGeometry y="64" width="250" height="26" as="geometry" />
        </mxCell>
        <mxCell id="BUBC56-ESGWpyypjYJ3N-16" value="+ setEndTime(): void" style="text;strokeColor=none;fillColor=none;align=left;verticalAlign=top;spacingLeft=4;spacingRight=4;overflow=hidden;rotatable=0;points=[[0,0.5],[1,0.5]];portConstraint=eastwest;whiteSpace=wrap;html=1;" parent="BUBC56-ESGWpyypjYJ3N-12" vertex="1">
          <mxGeometry y="90" width="250" height="26" as="geometry" />
        </mxCell>
      </root>
    </mxGraphModel>
  </diagram>
</mxfile>
